<svg xmlns="http://www.w3.org/2000/svg" xmlns:xlink="http://www.w3.org/1999/xlink" version="1.1" width="200" height="40"
	viewBox="0 0 3200 1000.9433941396471">

	<g transform="scale(12.452830164414502) translate(0, -10)">
		<defs id="SvgjsDefs1001"></defs>
		<g id="SvgjsG1007" featureKey="nameLeftFeature-0"
			transform="matrix(2.521008282140125,0,0,2.521008282140125,-3.47899051574945,15.579833155087071)"
			fill="#000000">
			<path
				d="M7.5 5.720000000000001 c2.0266 0 3.62 0.62666 4.78 1.88 s1.74 2.98 1.74 5.18 c0 2.28 -0.58334 4.0534 -1.75 5.32 s-2.73 1.9 -4.69 1.9 l-6.2 0 l0 -14.28 l6.12 0 z M7.3 17.36 c1.1333 0 2.0134 -0.37334 2.64 -1.12 s0.94 -1.8067 0.94 -3.18 c0 -1.5733 -0.33666 -2.75 -1.01 -3.53 s-1.71 -1.17 -3.11 -1.17 l-2.24 0 l0 9 l2.78 0 z M26.880000000000003 5.720000000000001 l0 2.64 l-7.54 0 l0 3.06 l6.92 0 l0 2.44 l-6.92 0 l0 3.5 l7.7 0 l0 2.64 l-10.84 0 l0 -14.28 l10.68 0 z M30.86 5.720000000000001 l3.18 10.04 l0.04 0 l3.22 -10.04 l3.24 0 l-4.74 14.28 l-3.54 0 l-4.64 -14.28 l3.24 0 z M48.5 5.720000000000001 c3.0266 0 4.54 1.1733 4.54 3.52 c0 1.3467 -0.64666 2.3466 -1.94 3 c0.88 0.25334 1.5367 0.69668 1.97 1.33 s0.65 1.3967 0.65 2.29 c0 1.28 -0.46334 2.29 -1.39 3.03 s-2.1434 1.11 -3.65 1.11 l-6.92 0 l0 -14.28 l6.74 0 z M48.1 11.5 c1.2667 0 1.9 -0.56666 1.9 -1.7 c0 -1.0933 -0.70666 -1.64 -2.12 -1.64 l-2.98 0 l0 3.34 l3.2 0 z M48.28 17.56 c1.5333 0 2.3 -0.62666 2.3 -1.88 c0 -1.36 -0.74666 -2.04 -2.24 -2.04 l-3.44 0 l0 3.92 l3.38 0 z M58.980000000000004 5.720000000000001 l0 11.64 l6.96 0 l0 2.64 l-10.1 0 l0 -14.28 l3.14 0 z">
			</path>
		</g>
		<g id="SvgjsG1008" featureKey="inlineSymbolFeature-0"
			transform="matrix(1.6979851281209788,0,0,1.6979851281209788,165.63222488751092,27.623746102824967)"
			fill="#000000">
			<title xmlns="http://www.w3.org/2000/svg">Food</title>
			<path xmlns="http://www.w3.org/2000/svg"
				d="M22.425,8.45a6.382,6.382,0,0,1-2.24,3.279,7.092,7.092,0,0,1-5.392,9.478,6.732,6.732,0,0,1-1.086.086,10.57,10.57,0,0,1-5.813-2.1.6.6,0,1,1,.686-.984c1.48,1.03,3.729,2.186,6.022,1.811a5.83,5.83,0,0,0,4.186-3.105,5.914,5.914,0,0,0,.367-4.514,6.846,6.846,0,0,1-3.23.829h-.1a.6.6,0,0,1-.591-.609.577.577,0,0,1,.608-.591h.082a5.713,5.713,0,0,0,3.121-.951.6.6,0,0,1,.131-.089A5.247,5.247,0,0,0,21.269,8.13,4.334,4.334,0,0,0,19.18,3.39a5.329,5.329,0,0,0-.938-.457C14.847,1.687,11.094,4.14,8.716,6.854A12.944,12.944,0,0,0,5.74,17.338L8.246,14.79a.6.6,0,0,1,.1-.1l2.135-2.171a9.438,9.438,0,0,1-.113-2.638,10.094,10.094,0,0,1,.374-1.834.6.6,0,1,1,1.146.358,8.838,8.838,0,0,0-.326,1.6,8.121,8.121,0,0,0-.014,1.425L16.8,6.1a.6.6,0,0,1,.855.842L11.589,13.1a.609.609,0,0,1-.065.066l-1.768,1.8a9.167,9.167,0,0,0,1.7.511,9.158,9.158,0,0,0,3.11.027.591.591,0,0,1,.688.5.6.6,0,0,1-.5.688,10.382,10.382,0,0,1-1.673.137,10.279,10.279,0,0,1-1.853-.169,10.533,10.533,0,0,1-2.384-.772L2.423,22.421a.6.6,0,1,1-.855-.842l3.154-3.206A14.137,14.137,0,0,1,7.813,6.064c2.64-3.015,6.876-5.716,10.842-4.257a6.514,6.514,0,0,1,1.151.559A5.537,5.537,0,0,1,22.425,8.45Z">
			</path>
		</g>
		<g id="SvgjsG1009" featureKey="nameRightFeature-0"
			transform="matrix(2.406417106163267,0,0,2.406417106163267,207.1711218747962,17.05347569344904)"
			fill="#000000">
			<path
				d="M7.78 5.380000000000001 c1.6267 0 3.0066 0.47336 4.14 1.42 s1.76 2.1534 1.88 3.62 l-3 0 c-0.18666 -0.8 -0.54666 -1.4 -1.08 -1.8 s-1.18 -0.6 -1.94 -0.6 c-1.2267 0 -2.18 0.44334 -2.86 1.33 s-1.02 2.0766 -1.02 3.57 c0 1.4667 0.34666 2.63 1.04 3.49 s1.64 1.29 2.84 1.29 c2.0534 0 3.1866 -1.0267 3.4 -3.08 l-3.16 0 l0 -2.34 l6 0 l0 7.72 l-2 0 l-0.32 -1.62 c-1 1.3067 -2.3066 1.96 -3.92 1.96 c-2.1066 0 -3.8034 -0.69334 -5.09 -2.08 s-1.93 -3.1666 -1.93 -5.34 c0 -2.2134 0.64 -4.0234 1.92 -5.43 s2.98 -2.11 5.1 -2.11 z">
			</path>
		</g>
	</g>
</svg>